#include <avr/pgmspace.h>

struct tune{
  prog_int16_t notes[200];
  prog_uint16_t durations[200];
};

struct tune PROGMEM aTune[]=
{
  /* Carol of the bells */
  { 
    {
      NOTE_AS5,NOTE_A5,NOTE_AS5,NOTE_G5,NOTE_AS5,NOTE_A5,NOTE_AS5,NOTE_G5,NOTE_AS5,NOTE_A5,NOTE_AS5,NOTE_G5,NOTE_AS5,NOTE_A5,NOTE_AS5,NOTE_G5,
      NOTE_D6,NOTE_C6,NOTE_D6,NOTE_AS5,NOTE_D6,NOTE_C6,NOTE_D6,NOTE_AS5,NOTE_D6,NOTE_C6,NOTE_D6,NOTE_AS5,NOTE_D6,NOTE_C6,NOTE_D6,NOTE_AS5,
      NOTE_G6,NOTE_G6,NOTE_G6,NOTE_F6,NOTE_DS6,NOTE_D6,NOTE_D6,NOTE_D6,NOTE_C6,NOTE_AS5,NOTE_C6,NOTE_C6,NOTE_C6,NOTE_D6,NOTE_C6,NOTE_AS5,NOTE_A5,NOTE_AS5,NOTE_G5,
      NOTE_D5,NOTE_E5,NOTE_FS5,NOTE_G5,NOTE_A5,NOTE_AS5,NOTE_C6,NOTE_D6,NOTE_C6,NOTE_AS5,NOTE_D5,NOTE_E5,NOTE_FS5,NOTE_G5,NOTE_A5,NOTE_AS5,NOTE_C6,NOTE_D6,NOTE_C6,NOTE_AS5,
      NOTE_AS5,NOTE_A5,NOTE_AS5,NOTE_G5,NOTE_AS5,NOTE_A5,NOTE_AS5,NOTE_G5,NOTE_AS5,NOTE_A5,NOTE_AS5,NOTE_G5,NOTE_AS5,NOTE_A5,NOTE_AS5,NOTE_G5,
      NOTE_D6,NOTE_C6,NOTE_D6,NOTE_AS5,NOTE_D6,NOTE_C6,NOTE_D6,NOTE_AS5,NOTE_D6,NOTE_C6,NOTE_D6,NOTE_AS5,NOTE_D6,NOTE_C6,NOTE_D6,NOTE_AS5,
      NOTE_G6,NOTE_G6,NOTE_G6,NOTE_F6,NOTE_DS6,NOTE_D6,NOTE_D6,NOTE_D6,NOTE_C6,NOTE_AS5,NOTE_C6,NOTE_C6,NOTE_C6,NOTE_D6,NOTE_C6,NOTE_AS5,NOTE_A5,NOTE_AS5,NOTE_G5,
      NOTE_D5,NOTE_E5,NOTE_FS5,NOTE_G5,NOTE_A5,NOTE_AS5,NOTE_C6,NOTE_D6,NOTE_C6,NOTE_AS5,NOTE_D5,NOTE_E5,NOTE_FS5,NOTE_G5,NOTE_A5,NOTE_AS5,NOTE_C6,NOTE_D6,NOTE_C6,NOTE_AS5,
      NOTE_AS5,NOTE_A5,NOTE_AS5,NOTE_G5,NOTE_AS5,NOTE_A5,NOTE_AS5,NOTE_G5,NOTE_AS5,NOTE_A5,NOTE_AS5,NOTE_G5,
      NOTE_AS5,NOTE_A5,NOTE_AS5,NOTE_G5,0,-1                        }
    ,
    {
      2,1,1,2,2,1,1,2,2,1,1,2,2,1,1,2,
      2,1,1,2,2,1,1,2,2,1,1,2,2,1,1,2,
      2,1,1,1,1,2,1,1,1,1,2,1,1,1,1,2,1,1,2,
      1,1,1,1,1,1,1,1,2,2,1,1,1,1,1,1,1,1,2,2,
      2,1,1,2,2,1,1,2,2,1,1,2,2,1,1,2,
      2,1,1,2,2,1,1,2,2,1,1,2,2,1,1,2,
      2,1,1,1,1,2,1,1,1,1,2,1,1,1,1,2,1,1,2,
      1,1,1,1,1,1,1,1,2,2,1,1,1,1,1,1,1,1,2,2,
      2,1,1,2,2,1,1,2,2,1,1,2,
      4,2,2,8,6,0                       }
  }
  ,
  /* Deck the halls */
  { 
    {
      NOTE_C6,NOTE_AS5,NOTE_A5,NOTE_G5,NOTE_F5,NOTE_G5,NOTE_A5,NOTE_F5,NOTE_G5,NOTE_A5,NOTE_AS5,NOTE_G5,NOTE_A5,NOTE_G5,NOTE_F5,NOTE_E5,NOTE_F5,0,
      NOTE_C6,NOTE_AS5,NOTE_A5,NOTE_G5,NOTE_F5,NOTE_G5,NOTE_A5,NOTE_F5,NOTE_G5,NOTE_A5,NOTE_AS5,NOTE_G5,NOTE_A5,NOTE_G5,NOTE_F5,NOTE_E5,NOTE_F5,0,
      NOTE_G5,NOTE_A5,NOTE_AS5,NOTE_G5,NOTE_A5,NOTE_AS5,NOTE_C6,NOTE_G5,NOTE_A5,NOTE_B5,NOTE_C6,NOTE_D6,NOTE_E6,NOTE_F6,NOTE_E6,NOTE_D6,NOTE_C6,0,
      NOTE_C6,NOTE_AS5,NOTE_A5,NOTE_G5,NOTE_F5,NOTE_G5,NOTE_A5,NOTE_F5,NOTE_D6,NOTE_D6,NOTE_D6,NOTE_D6,NOTE_C6,NOTE_AS5,NOTE_A5,NOTE_G5,NOTE_F5,0,-1
    }
    ,
    {
      3,1,2,2,2,2,2,2,1,1,1,1,3,1,2,2,3,1,
      3,1,2,2,2,2,2,2,1,1,1,1,3,1,2,2,3,1,
      3,1,2,2,3,1,2,2,1,1,2,1,1,2,2,2,3,1,
      3,1,2,2,2,2,2,2,1,1,1,1,3,1,2,2,4,8,0                        }
  }
  ,
  /* Silent Night */
  { 
    {
      NOTE_G5,NOTE_A5,NOTE_G5,NOTE_E5,0,NOTE_G5,NOTE_A5,NOTE_G5,NOTE_E5,0,NOTE_D6,NOTE_D6,NOTE_B5,0,NOTE_C6,NOTE_C6,NOTE_G5,0,
      NOTE_A5,NOTE_A5,NOTE_C6,NOTE_B5,NOTE_A5,NOTE_G5,NOTE_A5,NOTE_G5,NOTE_E5,0,NOTE_A5,NOTE_A5,NOTE_C6,NOTE_B5,NOTE_A5,NOTE_G5,NOTE_A5,NOTE_G5,NOTE_E5,0,
      NOTE_D6,NOTE_D6,NOTE_F6,NOTE_D6,NOTE_B5,NOTE_C6,NOTE_E6,0,NOTE_C6,NOTE_G5,NOTE_E5,NOTE_G5,NOTE_F5,NOTE_D5,NOTE_C5,0,-1
    }
    ,
    {
      6,2,4,11,1,6,2,4,11,1,8,4,11,1,8,4,11,1,
      8,4,6,2,4,6,2,4,11,1,8,4,6,2,4,6,2,4,11,1,
      8,4,6,2,4,12,11,1,4,4,4,6,2,4,12,12,0                        }
  }
  ,

  /* White Christmas */
  { 
    {
      NOTE_E5,NOTE_F5,NOTE_E5,NOTE_DS5,NOTE_E5,NOTE_F5,NOTE_FS5,NOTE_G5,NOTE_A5,NOTE_B5,NOTE_C6,NOTE_D6,NOTE_C6,NOTE_B5,NOTE_A5,NOTE_G5,0,
      NOTE_C5,NOTE_D5,NOTE_E5,NOTE_E5,NOTE_E5,NOTE_A5,NOTE_G5,NOTE_C5,NOTE_C5,NOTE_C5,NOTE_G5,NOTE_F5,NOTE_E5,NOTE_F5,NOTE_E5,NOTE_D5,NOTE_C5,NOTE_D5,0,
      NOTE_E5,NOTE_F5,NOTE_E5,NOTE_DS5,NOTE_E5,NOTE_F5,NOTE_FS5,NOTE_G5,NOTE_A5,NOTE_B5,NOTE_C6,NOTE_D6,NOTE_C6,NOTE_B5,NOTE_A5,NOTE_G5,0,
      NOTE_C5,NOTE_D5,NOTE_E5,NOTE_E5,NOTE_E5,NOTE_A5,NOTE_G5,NOTE_C6,NOTE_C5,NOTE_D5,NOTE_E5,NOTE_E5,NOTE_A5,NOTE_B4,NOTE_B4,NOTE_B4,NOTE_C5,0,-1
    }
    ,
    {
      8,2,2,2,2,8,2,8,2,2,1,3,2,2,1,9,4,
      2,2,4,4,2,4,2,4,4,2,4,2,8,2,2,2,2,12,4,
      8,2,2,2,2,8,2,8,2,2,1,3,2,2,1,9,4,
      2,2,4,4,2,4,2,10,2,2,4,4,3,1,2,2,16,8,0                        }
  }
  ,

  /* O Christmas Tree */
  {
    {
      NOTE_C5,NOTE_F5,NOTE_F5,NOTE_F5,NOTE_G5,NOTE_A5,NOTE_A5,NOTE_A5,NOTE_A5,NOTE_G5,NOTE_A5,NOTE_AS5,NOTE_E5,NOTE_G5,NOTE_F5,0,
      NOTE_C5,NOTE_F5,NOTE_F5,NOTE_F5,NOTE_G5,NOTE_A5,NOTE_A5,NOTE_A5,NOTE_A5,NOTE_G5,NOTE_A5,NOTE_AS5,NOTE_E5,NOTE_G5,NOTE_F5,0,
      NOTE_C6,NOTE_C6,NOTE_A5,NOTE_D6,NOTE_C6,NOTE_C6,NOTE_AS5,NOTE_AS5,NOTE_AS5,NOTE_AS5,NOTE_G5,NOTE_C6,NOTE_AS5,NOTE_AS5,NOTE_A5,NOTE_A5,0,
      NOTE_C5,NOTE_F5,NOTE_F5,NOTE_F5,NOTE_G5,NOTE_A5,NOTE_A5,NOTE_A5,NOTE_A5,NOTE_G5,NOTE_A5,NOTE_AS5,NOTE_E5,NOTE_G5,NOTE_F5,0,-1
    }
    ,
    {
      4,3,1,4,4,3,1,6,2,2,2,4,4,4,5,1,
      2,3,1,4,4,3,1,6,2,2,2,4,4,4,5,1,
      2,2,2,6,2,2,2,6,2,2,2,6,2,2,2,5,1,
      2,3,1,4,4,3,1,6,2,2,2,4,4,4,8,12,0                        }
  }
  ,

  /* Merry Christmas */
  { 
    {
      NOTE_D5,NOTE_G5,NOTE_G5,NOTE_A5,NOTE_G5,NOTE_FS5,NOTE_E5,NOTE_C5,NOTE_E5,NOTE_A5,NOTE_A5,NOTE_B5,NOTE_A5,NOTE_G5,NOTE_FS5,NOTE_D5,NOTE_FS5,NOTE_B5,NOTE_B5,NOTE_C6,NOTE_B5,NOTE_A5,NOTE_G5,NOTE_E5,NOTE_D5,NOTE_D5,NOTE_E5,NOTE_A5,NOTE_FS5,NOTE_G5,0,
      NOTE_D5,NOTE_G5,NOTE_G5,NOTE_G5,NOTE_FS5,NOTE_FS5,NOTE_G5,NOTE_FS5,NOTE_E5,NOTE_D5,NOTE_A5,NOTE_B5,NOTE_A5,NOTE_A5,NOTE_G5,NOTE_G5,NOTE_D6,NOTE_D5,NOTE_D5,NOTE_D5,NOTE_E5,NOTE_A5,NOTE_FS5,NOTE_G5,-1
    }
    ,
    {
      2,2,1,1,1,1,2,2,2,2,1,1,1,1,2,2,2,2,1,1,1,1,2,2,1,1,2,2,2,3,1,
      2,2,2,2,4,2,2,2,2,4,2,2,1,1,1,1,2,2,1,1,2,2,2,8,0                        }
  }
  ,

  /* Jingle Bells */
  { 
    {
      NOTE_E5,NOTE_E5,NOTE_E5,NOTE_E5,NOTE_E5,NOTE_E5,NOTE_E5,NOTE_G5,NOTE_C5,NOTE_D5,NOTE_E5,0,
      NOTE_F5,NOTE_F5,NOTE_F5,NOTE_F5,NOTE_F5,NOTE_E5,NOTE_E5,NOTE_E5,NOTE_E5,NOTE_D5,NOTE_D5,
      NOTE_E5,NOTE_D5,NOTE_G5,
      NOTE_E5,NOTE_E5,NOTE_E5,NOTE_E5,NOTE_E5,NOTE_E5,NOTE_E5,NOTE_G5,NOTE_C5,NOTE_D5,NOTE_E5,0,
      NOTE_F5,NOTE_F5,NOTE_F5,NOTE_F5,NOTE_F5,NOTE_E5,NOTE_E5,NOTE_E5,NOTE_G5,NOTE_G5,NOTE_F5,
      NOTE_D5,NOTE_C5,0,
      NOTE_G4,NOTE_E5,NOTE_D5,NOTE_C5,NOTE_G4,0,NOTE_G4,NOTE_G4,NOTE_G4,NOTE_E5,NOTE_D5,NOTE_C5,NOTE_A4,0,
      NOTE_A4,NOTE_F5,NOTE_E5,NOTE_D5,NOTE_B4,0,NOTE_G5,NOTE_G5,NOTE_F5,NOTE_D5,NOTE_E5,0,
      NOTE_G4,NOTE_E5,NOTE_D5,NOTE_C5,NOTE_G4,0,NOTE_G4,NOTE_G4,NOTE_G4,NOTE_E5,NOTE_D5,NOTE_C5,NOTE_A4,0,
      NOTE_A4,NOTE_F5,NOTE_E5,NOTE_D5,NOTE_G5,NOTE_G5,NOTE_G5,NOTE_G5,NOTE_A5,NOTE_G5,NOTE_F5,NOTE_D5,NOTE_C5,0,-1
    }
    ,
    {
      2,2,4,2,2,4,2,2,3,1,7,1,
      2,2,3,1,2,2,2,2,2,2,2,
      2,4,4,
      2,2,4,2,2,4,2,2,3,1,7,1,
      2,2,3,1,2,2,2,2,2,2,2,
      2,7,1, 
      2,2,2,2,5,1,1,1,2,2,2,2,7,1,
      2,2,2,2,7,1,2,2,2,2,7,1,
      2,2,2,2,5,1,1,1,2,2,2,2,7,1,
      2,2,2,2,2,2,2,2,2,2,2,2,8,8,0                       }
  }
  ,

  /* Little drummer boy */
  { 
    {
      NOTE_F5,NOTE_G5,NOTE_A5,NOTE_A5,NOTE_A5,NOTE_AS5,NOTE_A5,NOTE_AS5,NOTE_A5,0,
      NOTE_F5,NOTE_F5,NOTE_G5,NOTE_A5,NOTE_A5,NOTE_A5,NOTE_A5,NOTE_AS5,NOTE_A5,NOTE_AS5,NOTE_A5,0,
      NOTE_G5,NOTE_A5,NOTE_AS5,NOTE_C6,NOTE_C6,NOTE_C6,NOTE_D6,NOTE_C6,NOTE_AS5,NOTE_A5,NOTE_G5,0,
      NOTE_G5,NOTE_A5,NOTE_AS5,NOTE_C6,NOTE_C6,NOTE_C6,NOTE_D6,NOTE_DS6,NOTE_D6,NOTE_C6,NOTE_AS5,NOTE_D6,NOTE_C6,NOTE_AS5,NOTE_A5,NOTE_C6,NOTE_AS5,NOTE_A5,NOTE_G5,0,
      NOTE_F5,NOTE_G5,NOTE_A5,NOTE_A5,NOTE_A5,NOTE_AS5,NOTE_A5,NOTE_AS5,NOTE_A5,0,
      NOTE_G5,NOTE_F5,NOTE_G5,NOTE_F5,0,-1
    }
    ,
    {
      6,2,4,2,2,1,1,2,12,2,
      2,2,2,2,2,2,2,1,1,2,12,2,
      2,2,2,2,2,2,2,1,1,2,12,2,
      2,2,2,2,2,2,2,1,1,2,4,1,1,2,4,1,1,2,11,1, 
      6,2,4,2,2,1,1,2,12,2,1,1,2,12,8,0                    }
  }
  ,
};






